<mxfile host="app.diagrams.net" agent="Mozilla/5.0 (Windows NT 10.0; Win64; x64) AppleWebKit/537.36 (KHTML, like Gecko) Chrome/129.0.0.0 Safari/537.36" version="24.7.17">
  <diagram id="R2lEEEUBdFMjLlhIrx00" name="Page-1">
    <mxGraphModel dx="1615" dy="723" grid="1" gridSize="10" guides="1" tooltips="1" connect="1" arrows="1" fold="1" page="1" pageScale="1" pageWidth="850" pageHeight="1100" math="0" shadow="0" extFonts="Permanent Marker^https://fonts.googleapis.com/css?family=Permanent+Marker">
      <root>
        <mxCell id="0" />
        <mxCell id="1" parent="0" />
        <mxCell id="iynb89mg0CrT0Ba88yT7-1" value="phone no" style="ellipse;whiteSpace=wrap;html=1;" vertex="1" parent="1">
          <mxGeometry x="123" y="470" width="90" height="50" as="geometry" />
        </mxCell>
        <mxCell id="iynb89mg0CrT0Ba88yT7-3" value="Users" style="rounded=0;whiteSpace=wrap;html=1;" vertex="1" parent="1">
          <mxGeometry x="260" y="460" width="120" height="60" as="geometry" />
        </mxCell>
        <mxCell id="iynb89mg0CrT0Ba88yT7-4" value="password" style="ellipse;whiteSpace=wrap;html=1;" vertex="1" parent="1">
          <mxGeometry x="200" y="560" width="90" height="50" as="geometry" />
        </mxCell>
        <mxCell id="iynb89mg0CrT0Ba88yT7-6" value="&lt;u&gt;ID&lt;/u&gt;" style="ellipse;whiteSpace=wrap;html=1;" vertex="1" parent="1">
          <mxGeometry x="200" y="360" width="90" height="50" as="geometry" />
        </mxCell>
        <mxCell id="iynb89mg0CrT0Ba88yT7-7" value="" style="endArrow=none;html=1;rounded=0;" edge="1" parent="1" source="iynb89mg0CrT0Ba88yT7-3" target="iynb89mg0CrT0Ba88yT7-6">
          <mxGeometry width="50" height="50" relative="1" as="geometry">
            <mxPoint x="370" y="520" as="sourcePoint" />
            <mxPoint x="420" y="470" as="targetPoint" />
          </mxGeometry>
        </mxCell>
        <mxCell id="iynb89mg0CrT0Ba88yT7-9" value="" style="endArrow=none;html=1;rounded=0;" edge="1" parent="1" source="iynb89mg0CrT0Ba88yT7-3" target="iynb89mg0CrT0Ba88yT7-4">
          <mxGeometry width="50" height="50" relative="1" as="geometry">
            <mxPoint x="334" y="480" as="sourcePoint" />
            <mxPoint x="328" y="430" as="targetPoint" />
          </mxGeometry>
        </mxCell>
        <mxCell id="iynb89mg0CrT0Ba88yT7-10" value="" style="endArrow=none;html=1;rounded=0;" edge="1" parent="1" source="iynb89mg0CrT0Ba88yT7-3" target="iynb89mg0CrT0Ba88yT7-1">
          <mxGeometry width="50" height="50" relative="1" as="geometry">
            <mxPoint x="344" y="490" as="sourcePoint" />
            <mxPoint x="338" y="440" as="targetPoint" />
          </mxGeometry>
        </mxCell>
        <mxCell id="iynb89mg0CrT0Ba88yT7-11" value="Role" style="rhombus;whiteSpace=wrap;html=1;" vertex="1" parent="1">
          <mxGeometry x="460" y="450" width="80" height="80" as="geometry" />
        </mxCell>
        <mxCell id="iynb89mg0CrT0Ba88yT7-12" value="Doctors" style="rounded=0;whiteSpace=wrap;html=1;" vertex="1" parent="1">
          <mxGeometry x="445" y="145" width="120" height="60" as="geometry" />
        </mxCell>
        <mxCell id="iynb89mg0CrT0Ba88yT7-13" value="&lt;span style=&quot;font-weight: 700; text-align: left; text-wrap: nowrap; text-decoration-line: underline;&quot;&gt;room_id&amp;nbsp;&lt;/span&gt;" style="ellipse;whiteSpace=wrap;html=1;strokeColor=default;dashed=1;" vertex="1" parent="1">
          <mxGeometry x="425" y="30" width="70" height="40" as="geometry" />
        </mxCell>
        <mxCell id="iynb89mg0CrT0Ba88yT7-14" value="&lt;span style=&quot;font-weight: 700; text-align: left; text-wrap: nowrap; text-decoration-line: underline;&quot;&gt;doctor_id&lt;/span&gt;" style="ellipse;whiteSpace=wrap;html=1;strokeColor=default;" vertex="1" parent="1">
          <mxGeometry x="515" y="30" width="60" height="40" as="geometry" />
        </mxCell>
        <mxCell id="iynb89mg0CrT0Ba88yT7-15" value="&lt;span style=&quot;font-weight: 700; text-align: left; text-wrap: nowrap; text-decoration-line: underline;&quot;&gt;user_id&lt;/span&gt;" style="ellipse;whiteSpace=wrap;html=1;strokeColor=default;dashed=1;" vertex="1" parent="1">
          <mxGeometry x="355" y="50" width="60" height="40" as="geometry" />
        </mxCell>
        <mxCell id="iynb89mg0CrT0Ba88yT7-16" value="&lt;span style=&quot;text-align: left; text-wrap: nowrap;&quot;&gt;first_name&lt;/span&gt;" style="ellipse;whiteSpace=wrap;html=1;" vertex="1" parent="1">
          <mxGeometry x="325" y="110" width="70" height="30" as="geometry" />
        </mxCell>
        <mxCell id="iynb89mg0CrT0Ba88yT7-17" value="&lt;span style=&quot;text-align: left; text-wrap: nowrap;&quot;&gt;last_name&lt;/span&gt;" style="ellipse;whiteSpace=wrap;html=1;" vertex="1" parent="1">
          <mxGeometry x="315" y="160" width="80" height="30" as="geometry" />
        </mxCell>
        <mxCell id="iynb89mg0CrT0Ba88yT7-18" value="&lt;span style=&quot;text-align: left; text-wrap: nowrap;&quot;&gt;specialization&lt;/span&gt;" style="ellipse;whiteSpace=wrap;html=1;" vertex="1" parent="1">
          <mxGeometry x="305" y="220" width="90" height="40" as="geometry" />
        </mxCell>
        <mxCell id="iynb89mg0CrT0Ba88yT7-19" value="&lt;span style=&quot;text-align: left; text-wrap: nowrap;&quot;&gt;age&lt;/span&gt;" style="ellipse;whiteSpace=wrap;html=1;" vertex="1" parent="1">
          <mxGeometry x="405" y="270" width="50" height="30" as="geometry" />
        </mxCell>
        <mxCell id="iynb89mg0CrT0Ba88yT7-20" value="&lt;span style=&quot;text-align: left; text-wrap: nowrap;&quot;&gt;gender&lt;/span&gt;" style="ellipse;whiteSpace=wrap;html=1;" vertex="1" parent="1">
          <mxGeometry x="535" y="245" width="60" height="40" as="geometry" />
        </mxCell>
        <mxCell id="iynb89mg0CrT0Ba88yT7-21" value="&lt;span style=&quot;text-align: left; text-wrap: nowrap;&quot;&gt;contact (Unique)&lt;/span&gt;" style="ellipse;whiteSpace=wrap;html=1;" vertex="1" parent="1">
          <mxGeometry x="595" y="130" width="100" height="40" as="geometry" />
        </mxCell>
        <mxCell id="iynb89mg0CrT0Ba88yT7-22" value="&lt;span style=&quot;text-align: left; text-wrap: nowrap;&quot;&gt;address&lt;/span&gt;" style="ellipse;whiteSpace=wrap;html=1;" vertex="1" parent="1">
          <mxGeometry x="585" y="60" width="60" height="40" as="geometry" />
        </mxCell>
        <mxCell id="iynb89mg0CrT0Ba88yT7-27" value="" style="endArrow=none;html=1;rounded=0;" edge="1" parent="1" source="iynb89mg0CrT0Ba88yT7-12" target="iynb89mg0CrT0Ba88yT7-22">
          <mxGeometry width="50" height="50" relative="1" as="geometry">
            <mxPoint x="445" y="190" as="sourcePoint" />
            <mxPoint x="495" y="140" as="targetPoint" />
          </mxGeometry>
        </mxCell>
        <mxCell id="iynb89mg0CrT0Ba88yT7-28" value="" style="endArrow=none;html=1;rounded=0;" edge="1" parent="1" source="iynb89mg0CrT0Ba88yT7-12" target="iynb89mg0CrT0Ba88yT7-21">
          <mxGeometry width="50" height="50" relative="1" as="geometry">
            <mxPoint x="565" y="143" as="sourcePoint" />
            <mxPoint x="245" y="140" as="targetPoint" />
          </mxGeometry>
        </mxCell>
        <mxCell id="iynb89mg0CrT0Ba88yT7-29" value="" style="endArrow=none;html=1;rounded=0;" edge="1" parent="1" source="iynb89mg0CrT0Ba88yT7-12" target="iynb89mg0CrT0Ba88yT7-14">
          <mxGeometry width="50" height="50" relative="1" as="geometry">
            <mxPoint x="205" y="200" as="sourcePoint" />
            <mxPoint x="255" y="150" as="targetPoint" />
          </mxGeometry>
        </mxCell>
        <mxCell id="iynb89mg0CrT0Ba88yT7-30" value="" style="endArrow=none;html=1;rounded=0;" edge="1" parent="1" source="iynb89mg0CrT0Ba88yT7-12" target="iynb89mg0CrT0Ba88yT7-13">
          <mxGeometry width="50" height="50" relative="1" as="geometry">
            <mxPoint x="215" y="210" as="sourcePoint" />
            <mxPoint x="265" y="160" as="targetPoint" />
          </mxGeometry>
        </mxCell>
        <mxCell id="iynb89mg0CrT0Ba88yT7-31" value="" style="endArrow=none;html=1;rounded=0;" edge="1" parent="1" source="iynb89mg0CrT0Ba88yT7-12" target="iynb89mg0CrT0Ba88yT7-15">
          <mxGeometry width="50" height="50" relative="1" as="geometry">
            <mxPoint x="225" y="220" as="sourcePoint" />
            <mxPoint x="275" y="170" as="targetPoint" />
          </mxGeometry>
        </mxCell>
        <mxCell id="iynb89mg0CrT0Ba88yT7-32" value="" style="endArrow=none;html=1;rounded=0;" edge="1" parent="1" source="iynb89mg0CrT0Ba88yT7-12" target="iynb89mg0CrT0Ba88yT7-16">
          <mxGeometry width="50" height="50" relative="1" as="geometry">
            <mxPoint x="235" y="230" as="sourcePoint" />
            <mxPoint x="285" y="180" as="targetPoint" />
          </mxGeometry>
        </mxCell>
        <mxCell id="iynb89mg0CrT0Ba88yT7-33" value="" style="endArrow=none;html=1;rounded=0;" edge="1" parent="1" source="iynb89mg0CrT0Ba88yT7-12" target="iynb89mg0CrT0Ba88yT7-17">
          <mxGeometry width="50" height="50" relative="1" as="geometry">
            <mxPoint x="245" y="240" as="sourcePoint" />
            <mxPoint x="385" y="169" as="targetPoint" />
          </mxGeometry>
        </mxCell>
        <mxCell id="iynb89mg0CrT0Ba88yT7-34" value="" style="endArrow=none;html=1;rounded=0;" edge="1" parent="1" source="iynb89mg0CrT0Ba88yT7-12" target="iynb89mg0CrT0Ba88yT7-18">
          <mxGeometry width="50" height="50" relative="1" as="geometry">
            <mxPoint x="255" y="250" as="sourcePoint" />
            <mxPoint x="375" y="230" as="targetPoint" />
          </mxGeometry>
        </mxCell>
        <mxCell id="iynb89mg0CrT0Ba88yT7-35" value="" style="endArrow=none;html=1;rounded=0;" edge="1" parent="1" source="iynb89mg0CrT0Ba88yT7-12" target="iynb89mg0CrT0Ba88yT7-19">
          <mxGeometry width="50" height="50" relative="1" as="geometry">
            <mxPoint x="265" y="260" as="sourcePoint" />
            <mxPoint x="315" y="210" as="targetPoint" />
          </mxGeometry>
        </mxCell>
        <mxCell id="iynb89mg0CrT0Ba88yT7-36" value="" style="endArrow=none;html=1;rounded=0;" edge="1" parent="1" source="iynb89mg0CrT0Ba88yT7-12" target="iynb89mg0CrT0Ba88yT7-20">
          <mxGeometry width="50" height="50" relative="1" as="geometry">
            <mxPoint x="555" y="210" as="sourcePoint" />
            <mxPoint x="325" y="220" as="targetPoint" />
          </mxGeometry>
        </mxCell>
        <mxCell id="iynb89mg0CrT0Ba88yT7-39" value="" style="endArrow=classic;html=1;rounded=0;" edge="1" parent="1" source="iynb89mg0CrT0Ba88yT7-3" target="iynb89mg0CrT0Ba88yT7-11">
          <mxGeometry width="50" height="50" relative="1" as="geometry">
            <mxPoint x="390" y="520" as="sourcePoint" />
            <mxPoint x="440" y="470" as="targetPoint" />
          </mxGeometry>
        </mxCell>
        <mxCell id="iynb89mg0CrT0Ba88yT7-41" value="" style="endArrow=classic;html=1;rounded=0;" edge="1" parent="1" source="iynb89mg0CrT0Ba88yT7-11" target="iynb89mg0CrT0Ba88yT7-12">
          <mxGeometry width="50" height="50" relative="1" as="geometry">
            <mxPoint x="390" y="500" as="sourcePoint" />
            <mxPoint x="460" y="500" as="targetPoint" />
            <Array as="points" />
          </mxGeometry>
        </mxCell>
        <mxCell id="iynb89mg0CrT0Ba88yT7-42" value="Patient" style="rounded=0;whiteSpace=wrap;html=1;" vertex="1" parent="1">
          <mxGeometry x="890" y="280" width="120" height="60" as="geometry" />
        </mxCell>
        <mxCell id="iynb89mg0CrT0Ba88yT7-43" value="&lt;span style=&quot;font-weight: 700; text-align: left; text-wrap: nowrap; text-decoration-line: underline;&quot;&gt;patient_id&lt;/span&gt;" style="ellipse;whiteSpace=wrap;html=1;strokeColor=default;" vertex="1" parent="1">
          <mxGeometry x="900" y="145" width="70" height="40" as="geometry" />
        </mxCell>
        <mxCell id="iynb89mg0CrT0Ba88yT7-44" value="&lt;span style=&quot;font-weight: 700; text-align: left; text-wrap: nowrap; text-decoration-line: underline;&quot;&gt;insurance_id&amp;nbsp;&lt;/span&gt;" style="ellipse;whiteSpace=wrap;html=1;strokeColor=default;dashed=1;" vertex="1" parent="1">
          <mxGeometry x="990" y="165" width="90" height="50" as="geometry" />
        </mxCell>
        <mxCell id="iynb89mg0CrT0Ba88yT7-45" value="&lt;span style=&quot;font-weight: 700; text-align: left; text-wrap: nowrap; text-decoration-line: underline;&quot;&gt;user_id&lt;/span&gt;" style="ellipse;whiteSpace=wrap;html=1;strokeColor=default;dashed=1;" vertex="1" parent="1">
          <mxGeometry x="840" y="175" width="60" height="40" as="geometry" />
        </mxCell>
        <mxCell id="iynb89mg0CrT0Ba88yT7-46" value="&lt;span style=&quot;text-align: left; text-wrap: nowrap;&quot;&gt;first_name&lt;/span&gt;" style="ellipse;whiteSpace=wrap;html=1;" vertex="1" parent="1">
          <mxGeometry x="770" y="215" width="70" height="30" as="geometry" />
        </mxCell>
        <mxCell id="iynb89mg0CrT0Ba88yT7-47" value="&lt;span style=&quot;text-align: left; text-wrap: nowrap;&quot;&gt;last_name&lt;/span&gt;" style="ellipse;whiteSpace=wrap;html=1;" vertex="1" parent="1">
          <mxGeometry x="745" y="255" width="80" height="30" as="geometry" />
        </mxCell>
        <mxCell id="iynb89mg0CrT0Ba88yT7-48" value="&lt;span style=&quot;text-align: left; text-wrap: nowrap;&quot;&gt;dob (Date of Birth)&lt;/span&gt;" style="ellipse;whiteSpace=wrap;html=1;" vertex="1" parent="1">
          <mxGeometry x="1090" y="325" width="110" height="40" as="geometry" />
        </mxCell>
        <mxCell id="iynb89mg0CrT0Ba88yT7-49" value="&lt;span style=&quot;text-align: left; text-wrap: nowrap;&quot;&gt;age&lt;/span&gt;" style="ellipse;whiteSpace=wrap;html=1;" vertex="1" parent="1">
          <mxGeometry x="910" y="405" width="50" height="30" as="geometry" />
        </mxCell>
        <mxCell id="iynb89mg0CrT0Ba88yT7-50" value="&lt;span style=&quot;text-align: left; text-wrap: nowrap;&quot;&gt;gender&lt;/span&gt;" style="ellipse;whiteSpace=wrap;html=1;" vertex="1" parent="1">
          <mxGeometry x="980" y="380" width="60" height="40" as="geometry" />
        </mxCell>
        <mxCell id="iynb89mg0CrT0Ba88yT7-51" value="&lt;span style=&quot;text-align: left; text-wrap: nowrap;&quot;&gt;contact (Unique)&lt;/span&gt;" style="ellipse;whiteSpace=wrap;html=1;" vertex="1" parent="1">
          <mxGeometry x="1070" y="255" width="100" height="40" as="geometry" />
        </mxCell>
        <mxCell id="iynb89mg0CrT0Ba88yT7-52" value="&lt;span style=&quot;text-align: left; text-wrap: nowrap;&quot;&gt;address&lt;/span&gt;" style="ellipse;whiteSpace=wrap;html=1;" vertex="1" parent="1">
          <mxGeometry x="1100" y="190" width="60" height="40" as="geometry" />
        </mxCell>
        <mxCell id="iynb89mg0CrT0Ba88yT7-53" value="" style="endArrow=none;html=1;rounded=0;" edge="1" parent="1" source="iynb89mg0CrT0Ba88yT7-42" target="iynb89mg0CrT0Ba88yT7-52">
          <mxGeometry width="50" height="50" relative="1" as="geometry">
            <mxPoint x="890" y="325" as="sourcePoint" />
            <mxPoint x="940" y="275" as="targetPoint" />
          </mxGeometry>
        </mxCell>
        <mxCell id="iynb89mg0CrT0Ba88yT7-54" value="" style="endArrow=none;html=1;rounded=0;" edge="1" parent="1" source="iynb89mg0CrT0Ba88yT7-42" target="iynb89mg0CrT0Ba88yT7-51">
          <mxGeometry width="50" height="50" relative="1" as="geometry">
            <mxPoint x="1010" y="278" as="sourcePoint" />
            <mxPoint x="1059.9505087884522" y="276.97355922819474" as="targetPoint" />
          </mxGeometry>
        </mxCell>
        <mxCell id="iynb89mg0CrT0Ba88yT7-55" value="" style="endArrow=none;html=1;rounded=0;" edge="1" parent="1" source="iynb89mg0CrT0Ba88yT7-42" target="iynb89mg0CrT0Ba88yT7-44">
          <mxGeometry width="50" height="50" relative="1" as="geometry">
            <mxPoint x="650" y="335" as="sourcePoint" />
            <mxPoint x="700" y="285" as="targetPoint" />
          </mxGeometry>
        </mxCell>
        <mxCell id="iynb89mg0CrT0Ba88yT7-56" value="" style="endArrow=none;html=1;rounded=0;" edge="1" parent="1" source="iynb89mg0CrT0Ba88yT7-42" target="iynb89mg0CrT0Ba88yT7-43">
          <mxGeometry width="50" height="50" relative="1" as="geometry">
            <mxPoint x="660" y="345" as="sourcePoint" />
            <mxPoint x="710" y="295" as="targetPoint" />
          </mxGeometry>
        </mxCell>
        <mxCell id="iynb89mg0CrT0Ba88yT7-57" value="" style="endArrow=none;html=1;rounded=0;" edge="1" parent="1" source="iynb89mg0CrT0Ba88yT7-42" target="iynb89mg0CrT0Ba88yT7-45">
          <mxGeometry width="50" height="50" relative="1" as="geometry">
            <mxPoint x="670" y="355" as="sourcePoint" />
            <mxPoint x="720" y="305" as="targetPoint" />
          </mxGeometry>
        </mxCell>
        <mxCell id="iynb89mg0CrT0Ba88yT7-58" value="" style="endArrow=none;html=1;rounded=0;" edge="1" parent="1" source="iynb89mg0CrT0Ba88yT7-42" target="iynb89mg0CrT0Ba88yT7-46">
          <mxGeometry width="50" height="50" relative="1" as="geometry">
            <mxPoint x="680" y="365" as="sourcePoint" />
            <mxPoint x="730" y="315" as="targetPoint" />
          </mxGeometry>
        </mxCell>
        <mxCell id="iynb89mg0CrT0Ba88yT7-59" value="" style="endArrow=none;html=1;rounded=0;" edge="1" parent="1" source="iynb89mg0CrT0Ba88yT7-42" target="iynb89mg0CrT0Ba88yT7-47">
          <mxGeometry width="50" height="50" relative="1" as="geometry">
            <mxPoint x="690" y="375" as="sourcePoint" />
            <mxPoint x="830" y="304" as="targetPoint" />
          </mxGeometry>
        </mxCell>
        <mxCell id="iynb89mg0CrT0Ba88yT7-60" value="" style="endArrow=none;html=1;rounded=0;" edge="1" parent="1" source="iynb89mg0CrT0Ba88yT7-42" target="iynb89mg0CrT0Ba88yT7-48">
          <mxGeometry width="50" height="50" relative="1" as="geometry">
            <mxPoint x="700" y="385" as="sourcePoint" />
            <mxPoint x="820" y="365" as="targetPoint" />
          </mxGeometry>
        </mxCell>
        <mxCell id="iynb89mg0CrT0Ba88yT7-61" value="" style="endArrow=none;html=1;rounded=0;" edge="1" parent="1" source="iynb89mg0CrT0Ba88yT7-42" target="iynb89mg0CrT0Ba88yT7-49">
          <mxGeometry width="50" height="50" relative="1" as="geometry">
            <mxPoint x="710" y="395" as="sourcePoint" />
            <mxPoint x="760" y="345" as="targetPoint" />
          </mxGeometry>
        </mxCell>
        <mxCell id="iynb89mg0CrT0Ba88yT7-62" value="" style="endArrow=none;html=1;rounded=0;" edge="1" parent="1" source="iynb89mg0CrT0Ba88yT7-42" target="iynb89mg0CrT0Ba88yT7-50">
          <mxGeometry width="50" height="50" relative="1" as="geometry">
            <mxPoint x="1000" y="345" as="sourcePoint" />
            <mxPoint x="770" y="355" as="targetPoint" />
          </mxGeometry>
        </mxCell>
        <mxCell id="iynb89mg0CrT0Ba88yT7-63" value="Nurse" style="rounded=0;whiteSpace=wrap;html=1;" vertex="1" parent="1">
          <mxGeometry x="440" y="805" width="120" height="60" as="geometry" />
        </mxCell>
        <mxCell id="iynb89mg0CrT0Ba88yT7-65" value="&lt;span style=&quot;font-weight: 700; text-align: left; text-wrap: nowrap; text-decoration-line: underline;&quot;&gt;nurse_id&lt;/span&gt;" style="ellipse;whiteSpace=wrap;html=1;strokeColor=default;dashed=1;" vertex="1" parent="1">
          <mxGeometry x="600" y="865" width="60" height="40" as="geometry" />
        </mxCell>
        <mxCell id="iynb89mg0CrT0Ba88yT7-66" value="&lt;span style=&quot;font-weight: 700; text-align: left; text-wrap: nowrap; text-decoration-line: underline;&quot;&gt;user_id&lt;/span&gt;" style="ellipse;whiteSpace=wrap;html=1;strokeColor=default;dashed=1;" vertex="1" parent="1">
          <mxGeometry x="350" y="710" width="60" height="40" as="geometry" />
        </mxCell>
        <mxCell id="iynb89mg0CrT0Ba88yT7-67" value="&lt;span style=&quot;text-align: left; text-wrap: nowrap;&quot;&gt;first_name&lt;/span&gt;" style="ellipse;whiteSpace=wrap;html=1;" vertex="1" parent="1">
          <mxGeometry x="320" y="770" width="70" height="30" as="geometry" />
        </mxCell>
        <mxCell id="iynb89mg0CrT0Ba88yT7-68" value="&lt;span style=&quot;text-align: left; text-wrap: nowrap;&quot;&gt;last_name&lt;/span&gt;" style="ellipse;whiteSpace=wrap;html=1;" vertex="1" parent="1">
          <mxGeometry x="310" y="820" width="80" height="30" as="geometry" />
        </mxCell>
        <mxCell id="iynb89mg0CrT0Ba88yT7-69" value="&lt;span style=&quot;text-align: left; text-wrap: nowrap;&quot;&gt;shift&lt;/span&gt;" style="ellipse;whiteSpace=wrap;html=1;" vertex="1" parent="1">
          <mxGeometry x="300" y="880" width="90" height="40" as="geometry" />
        </mxCell>
        <mxCell id="iynb89mg0CrT0Ba88yT7-70" value="&lt;span style=&quot;text-align: left; text-wrap: nowrap;&quot;&gt;age&lt;/span&gt;" style="ellipse;whiteSpace=wrap;html=1;" vertex="1" parent="1">
          <mxGeometry x="460" y="930" width="50" height="30" as="geometry" />
        </mxCell>
        <mxCell id="iynb89mg0CrT0Ba88yT7-71" value="&lt;span style=&quot;text-align: left; text-wrap: nowrap;&quot;&gt;gender&lt;/span&gt;" style="ellipse;whiteSpace=wrap;html=1;" vertex="1" parent="1">
          <mxGeometry x="530" y="905" width="60" height="40" as="geometry" />
        </mxCell>
        <mxCell id="iynb89mg0CrT0Ba88yT7-72" value="&lt;span style=&quot;text-align: left; text-wrap: nowrap;&quot;&gt;phone&lt;/span&gt;" style="ellipse;whiteSpace=wrap;html=1;" vertex="1" parent="1">
          <mxGeometry x="600" y="770" width="60" height="40" as="geometry" />
        </mxCell>
        <mxCell id="iynb89mg0CrT0Ba88yT7-73" value="&lt;span style=&quot;text-align: left; text-wrap: nowrap;&quot;&gt;address&lt;/span&gt;" style="ellipse;whiteSpace=wrap;html=1;" vertex="1" parent="1">
          <mxGeometry x="580" y="720" width="60" height="40" as="geometry" />
        </mxCell>
        <mxCell id="iynb89mg0CrT0Ba88yT7-74" value="" style="endArrow=none;html=1;rounded=0;" edge="1" parent="1" source="iynb89mg0CrT0Ba88yT7-63" target="iynb89mg0CrT0Ba88yT7-73">
          <mxGeometry width="50" height="50" relative="1" as="geometry">
            <mxPoint x="440" y="850" as="sourcePoint" />
            <mxPoint x="490" y="800" as="targetPoint" />
          </mxGeometry>
        </mxCell>
        <mxCell id="iynb89mg0CrT0Ba88yT7-75" value="" style="endArrow=none;html=1;rounded=0;" edge="1" parent="1" source="iynb89mg0CrT0Ba88yT7-63" target="iynb89mg0CrT0Ba88yT7-72">
          <mxGeometry width="50" height="50" relative="1" as="geometry">
            <mxPoint x="560" y="803" as="sourcePoint" />
            <mxPoint x="240" y="800" as="targetPoint" />
          </mxGeometry>
        </mxCell>
        <mxCell id="iynb89mg0CrT0Ba88yT7-76" value="" style="endArrow=none;html=1;rounded=0;" edge="1" parent="1" source="iynb89mg0CrT0Ba88yT7-63" target="iynb89mg0CrT0Ba88yT7-65">
          <mxGeometry width="50" height="50" relative="1" as="geometry">
            <mxPoint x="200" y="860" as="sourcePoint" />
            <mxPoint x="250" y="810" as="targetPoint" />
          </mxGeometry>
        </mxCell>
        <mxCell id="iynb89mg0CrT0Ba88yT7-77" value="" style="endArrow=none;html=1;rounded=0;" edge="1" parent="1" source="iynb89mg0CrT0Ba88yT7-63" target="iynb89mg0CrT0Ba88yT7-98">
          <mxGeometry width="50" height="50" relative="1" as="geometry">
            <mxPoint x="210" y="870" as="sourcePoint" />
            <mxPoint x="462" y="730" as="targetPoint" />
          </mxGeometry>
        </mxCell>
        <mxCell id="iynb89mg0CrT0Ba88yT7-78" value="" style="endArrow=none;html=1;rounded=0;" edge="1" parent="1" source="iynb89mg0CrT0Ba88yT7-63" target="iynb89mg0CrT0Ba88yT7-66">
          <mxGeometry width="50" height="50" relative="1" as="geometry">
            <mxPoint x="220" y="880" as="sourcePoint" />
            <mxPoint x="270" y="830" as="targetPoint" />
          </mxGeometry>
        </mxCell>
        <mxCell id="iynb89mg0CrT0Ba88yT7-79" value="" style="endArrow=none;html=1;rounded=0;" edge="1" parent="1" source="iynb89mg0CrT0Ba88yT7-63" target="iynb89mg0CrT0Ba88yT7-67">
          <mxGeometry width="50" height="50" relative="1" as="geometry">
            <mxPoint x="230" y="890" as="sourcePoint" />
            <mxPoint x="280" y="840" as="targetPoint" />
          </mxGeometry>
        </mxCell>
        <mxCell id="iynb89mg0CrT0Ba88yT7-80" value="" style="endArrow=none;html=1;rounded=0;" edge="1" parent="1" source="iynb89mg0CrT0Ba88yT7-63" target="iynb89mg0CrT0Ba88yT7-68">
          <mxGeometry width="50" height="50" relative="1" as="geometry">
            <mxPoint x="240" y="900" as="sourcePoint" />
            <mxPoint x="380" y="829" as="targetPoint" />
          </mxGeometry>
        </mxCell>
        <mxCell id="iynb89mg0CrT0Ba88yT7-81" value="" style="endArrow=none;html=1;rounded=0;" edge="1" parent="1" source="iynb89mg0CrT0Ba88yT7-63" target="iynb89mg0CrT0Ba88yT7-69">
          <mxGeometry width="50" height="50" relative="1" as="geometry">
            <mxPoint x="250" y="910" as="sourcePoint" />
            <mxPoint x="370" y="890" as="targetPoint" />
          </mxGeometry>
        </mxCell>
        <mxCell id="iynb89mg0CrT0Ba88yT7-82" value="" style="endArrow=none;html=1;rounded=0;" edge="1" parent="1" source="iynb89mg0CrT0Ba88yT7-63" target="iynb89mg0CrT0Ba88yT7-70">
          <mxGeometry width="50" height="50" relative="1" as="geometry">
            <mxPoint x="260" y="920" as="sourcePoint" />
            <mxPoint x="310" y="870" as="targetPoint" />
          </mxGeometry>
        </mxCell>
        <mxCell id="iynb89mg0CrT0Ba88yT7-83" value="" style="endArrow=none;html=1;rounded=0;" edge="1" parent="1" source="iynb89mg0CrT0Ba88yT7-63" target="iynb89mg0CrT0Ba88yT7-71">
          <mxGeometry width="50" height="50" relative="1" as="geometry">
            <mxPoint x="550" y="870" as="sourcePoint" />
            <mxPoint x="320" y="880" as="targetPoint" />
          </mxGeometry>
        </mxCell>
        <mxCell id="iynb89mg0CrT0Ba88yT7-84" value="&lt;span style=&quot;text-align: left; text-wrap: nowrap;&quot;&gt;admission_date&lt;/span&gt;" style="ellipse;whiteSpace=wrap;html=1;" vertex="1" parent="1">
          <mxGeometry x="780" y="410" width="110" height="40" as="geometry" />
        </mxCell>
        <mxCell id="iynb89mg0CrT0Ba88yT7-86" value="&lt;span style=&quot;text-align: left; text-wrap: nowrap;&quot;&gt;schedule&amp;nbsp;&lt;/span&gt;" style="ellipse;whiteSpace=wrap;html=1;" vertex="1" parent="1">
          <mxGeometry x="585" y="200" width="100" height="40" as="geometry" />
        </mxCell>
        <mxCell id="iynb89mg0CrT0Ba88yT7-87" value="" style="endArrow=none;html=1;rounded=0;" edge="1" parent="1" source="iynb89mg0CrT0Ba88yT7-12" target="iynb89mg0CrT0Ba88yT7-86">
          <mxGeometry width="50" height="50" relative="1" as="geometry">
            <mxPoint x="205" y="85" as="sourcePoint" />
            <mxPoint x="255" y="35" as="targetPoint" />
          </mxGeometry>
        </mxCell>
        <mxCell id="iynb89mg0CrT0Ba88yT7-98" value="&lt;span style=&quot;text-align: left; text-wrap: nowrap;&quot;&gt;schedule&amp;nbsp;&lt;/span&gt;" style="ellipse;whiteSpace=wrap;html=1;" vertex="1" parent="1">
          <mxGeometry x="355" y="930" width="80" height="40" as="geometry" />
        </mxCell>
        <mxCell id="iynb89mg0CrT0Ba88yT7-106" value="" style="endArrow=none;html=1;rounded=0;" edge="1" parent="1" source="iynb89mg0CrT0Ba88yT7-84" target="iynb89mg0CrT0Ba88yT7-42">
          <mxGeometry width="50" height="50" relative="1" as="geometry">
            <mxPoint x="570" y="355" as="sourcePoint" />
            <mxPoint x="620" y="305" as="targetPoint" />
          </mxGeometry>
        </mxCell>
        <mxCell id="iynb89mg0CrT0Ba88yT7-107" value="Doctors" style="rounded=0;whiteSpace=wrap;html=1;" vertex="1" parent="1">
          <mxGeometry x="865" y="630" width="120" height="60" as="geometry" />
        </mxCell>
        <mxCell id="iynb89mg0CrT0Ba88yT7-108" value="&lt;span style=&quot;font-weight: 700; text-align: left; text-wrap: nowrap; text-decoration-line: underline;&quot;&gt;room_id&amp;nbsp;&lt;/span&gt;" style="ellipse;whiteSpace=wrap;html=1;strokeColor=default;dashed=1;" vertex="1" parent="1">
          <mxGeometry x="820" y="755" width="70" height="40" as="geometry" />
        </mxCell>
        <mxCell id="iynb89mg0CrT0Ba88yT7-109" value="&lt;span style=&quot;font-weight: 700; text-align: left; text-wrap: nowrap; text-decoration-line: underline;&quot;&gt;doctor_id&lt;/span&gt;" style="ellipse;whiteSpace=wrap;html=1;strokeColor=default;" vertex="1" parent="1">
          <mxGeometry x="955" y="530" width="60" height="40" as="geometry" />
        </mxCell>
        <mxCell id="iynb89mg0CrT0Ba88yT7-110" value="&lt;span style=&quot;font-weight: 700; text-align: left; text-wrap: nowrap; text-decoration-line: underline;&quot;&gt;user_id&lt;/span&gt;" style="ellipse;whiteSpace=wrap;html=1;strokeColor=default;dashed=1;" vertex="1" parent="1">
          <mxGeometry x="880" y="520" width="60" height="40" as="geometry" />
        </mxCell>
        <mxCell id="iynb89mg0CrT0Ba88yT7-111" value="&lt;span style=&quot;text-align: left; text-wrap: nowrap;&quot;&gt;first_name&lt;/span&gt;" style="ellipse;whiteSpace=wrap;html=1;" vertex="1" parent="1">
          <mxGeometry x="765" y="610" width="70" height="30" as="geometry" />
        </mxCell>
        <mxCell id="iynb89mg0CrT0Ba88yT7-112" value="&lt;span style=&quot;text-align: left; text-wrap: nowrap;&quot;&gt;last_name&lt;/span&gt;" style="ellipse;whiteSpace=wrap;html=1;" vertex="1" parent="1">
          <mxGeometry x="755" y="660" width="80" height="30" as="geometry" />
        </mxCell>
        <mxCell id="iynb89mg0CrT0Ba88yT7-113" value="&lt;span style=&quot;text-align: left; text-wrap: nowrap;&quot;&gt;specialization&lt;/span&gt;" style="ellipse;whiteSpace=wrap;html=1;" vertex="1" parent="1">
          <mxGeometry x="745" y="720" width="90" height="40" as="geometry" />
        </mxCell>
        <mxCell id="iynb89mg0CrT0Ba88yT7-114" value="&lt;span style=&quot;text-align: left; text-wrap: nowrap;&quot;&gt;age&lt;/span&gt;" style="ellipse;whiteSpace=wrap;html=1;" vertex="1" parent="1">
          <mxGeometry x="905" y="770" width="50" height="30" as="geometry" />
        </mxCell>
        <mxCell id="iynb89mg0CrT0Ba88yT7-115" value="&lt;span style=&quot;text-align: left; text-wrap: nowrap;&quot;&gt;gender&lt;/span&gt;" style="ellipse;whiteSpace=wrap;html=1;" vertex="1" parent="1">
          <mxGeometry x="975" y="745" width="60" height="40" as="geometry" />
        </mxCell>
        <mxCell id="iynb89mg0CrT0Ba88yT7-116" value="&lt;span style=&quot;text-align: left; text-wrap: nowrap;&quot;&gt;contact (Unique)&lt;/span&gt;" style="ellipse;whiteSpace=wrap;html=1;" vertex="1" parent="1">
          <mxGeometry x="1035" y="630" width="100" height="40" as="geometry" />
        </mxCell>
        <mxCell id="iynb89mg0CrT0Ba88yT7-117" value="&lt;span style=&quot;text-align: left; text-wrap: nowrap;&quot;&gt;address&lt;/span&gt;" style="ellipse;whiteSpace=wrap;html=1;" vertex="1" parent="1">
          <mxGeometry x="1025" y="560" width="60" height="40" as="geometry" />
        </mxCell>
        <mxCell id="iynb89mg0CrT0Ba88yT7-118" value="" style="endArrow=none;html=1;rounded=0;" edge="1" parent="1" source="iynb89mg0CrT0Ba88yT7-107" target="iynb89mg0CrT0Ba88yT7-117">
          <mxGeometry width="50" height="50" relative="1" as="geometry">
            <mxPoint x="885" y="690" as="sourcePoint" />
            <mxPoint x="935" y="640" as="targetPoint" />
          </mxGeometry>
        </mxCell>
        <mxCell id="iynb89mg0CrT0Ba88yT7-119" value="" style="endArrow=none;html=1;rounded=0;" edge="1" parent="1" source="iynb89mg0CrT0Ba88yT7-107" target="iynb89mg0CrT0Ba88yT7-116">
          <mxGeometry width="50" height="50" relative="1" as="geometry">
            <mxPoint x="1005" y="643" as="sourcePoint" />
            <mxPoint x="685" y="640" as="targetPoint" />
          </mxGeometry>
        </mxCell>
        <mxCell id="iynb89mg0CrT0Ba88yT7-120" value="" style="endArrow=none;html=1;rounded=0;" edge="1" parent="1" source="iynb89mg0CrT0Ba88yT7-107" target="iynb89mg0CrT0Ba88yT7-109">
          <mxGeometry width="50" height="50" relative="1" as="geometry">
            <mxPoint x="645" y="700" as="sourcePoint" />
            <mxPoint x="695" y="650" as="targetPoint" />
          </mxGeometry>
        </mxCell>
        <mxCell id="iynb89mg0CrT0Ba88yT7-121" value="" style="endArrow=none;html=1;rounded=0;" edge="1" parent="1" source="iynb89mg0CrT0Ba88yT7-107" target="iynb89mg0CrT0Ba88yT7-108">
          <mxGeometry width="50" height="50" relative="1" as="geometry">
            <mxPoint x="655" y="710" as="sourcePoint" />
            <mxPoint x="705" y="660" as="targetPoint" />
          </mxGeometry>
        </mxCell>
        <mxCell id="iynb89mg0CrT0Ba88yT7-122" value="" style="endArrow=none;html=1;rounded=0;" edge="1" parent="1" source="iynb89mg0CrT0Ba88yT7-107" target="iynb89mg0CrT0Ba88yT7-110">
          <mxGeometry width="50" height="50" relative="1" as="geometry">
            <mxPoint x="665" y="720" as="sourcePoint" />
            <mxPoint x="715" y="670" as="targetPoint" />
          </mxGeometry>
        </mxCell>
        <mxCell id="iynb89mg0CrT0Ba88yT7-123" value="" style="endArrow=none;html=1;rounded=0;" edge="1" parent="1" source="iynb89mg0CrT0Ba88yT7-107" target="iynb89mg0CrT0Ba88yT7-111">
          <mxGeometry width="50" height="50" relative="1" as="geometry">
            <mxPoint x="675" y="730" as="sourcePoint" />
            <mxPoint x="725" y="680" as="targetPoint" />
          </mxGeometry>
        </mxCell>
        <mxCell id="iynb89mg0CrT0Ba88yT7-124" value="" style="endArrow=none;html=1;rounded=0;" edge="1" parent="1" source="iynb89mg0CrT0Ba88yT7-107" target="iynb89mg0CrT0Ba88yT7-112">
          <mxGeometry width="50" height="50" relative="1" as="geometry">
            <mxPoint x="685" y="740" as="sourcePoint" />
            <mxPoint x="825" y="669" as="targetPoint" />
          </mxGeometry>
        </mxCell>
        <mxCell id="iynb89mg0CrT0Ba88yT7-125" value="" style="endArrow=none;html=1;rounded=0;" edge="1" parent="1" source="iynb89mg0CrT0Ba88yT7-107" target="iynb89mg0CrT0Ba88yT7-113">
          <mxGeometry width="50" height="50" relative="1" as="geometry">
            <mxPoint x="695" y="750" as="sourcePoint" />
            <mxPoint x="815" y="730" as="targetPoint" />
          </mxGeometry>
        </mxCell>
        <mxCell id="iynb89mg0CrT0Ba88yT7-126" value="" style="endArrow=none;html=1;rounded=0;" edge="1" parent="1" source="iynb89mg0CrT0Ba88yT7-107" target="iynb89mg0CrT0Ba88yT7-114">
          <mxGeometry width="50" height="50" relative="1" as="geometry">
            <mxPoint x="705" y="760" as="sourcePoint" />
            <mxPoint x="755" y="710" as="targetPoint" />
          </mxGeometry>
        </mxCell>
        <mxCell id="iynb89mg0CrT0Ba88yT7-127" value="" style="endArrow=none;html=1;rounded=0;" edge="1" parent="1" source="iynb89mg0CrT0Ba88yT7-107" target="iynb89mg0CrT0Ba88yT7-115">
          <mxGeometry width="50" height="50" relative="1" as="geometry">
            <mxPoint x="995" y="710" as="sourcePoint" />
            <mxPoint x="765" y="720" as="targetPoint" />
          </mxGeometry>
        </mxCell>
        <mxCell id="iynb89mg0CrT0Ba88yT7-128" value="&lt;span style=&quot;text-align: left; text-wrap: nowrap;&quot;&gt;schedule&amp;nbsp;&lt;/span&gt;" style="ellipse;whiteSpace=wrap;html=1;" vertex="1" parent="1">
          <mxGeometry x="1025" y="700" width="100" height="40" as="geometry" />
        </mxCell>
        <mxCell id="iynb89mg0CrT0Ba88yT7-129" value="" style="endArrow=none;html=1;rounded=0;" edge="1" parent="1" source="iynb89mg0CrT0Ba88yT7-107" target="iynb89mg0CrT0Ba88yT7-128">
          <mxGeometry width="50" height="50" relative="1" as="geometry">
            <mxPoint x="645" y="585" as="sourcePoint" />
            <mxPoint x="695" y="535" as="targetPoint" />
          </mxGeometry>
        </mxCell>
        <mxCell id="iynb89mg0CrT0Ba88yT7-133" value="" style="endArrow=classic;html=1;rounded=0;" edge="1" parent="1" source="iynb89mg0CrT0Ba88yT7-11" target="iynb89mg0CrT0Ba88yT7-63">
          <mxGeometry width="50" height="50" relative="1" as="geometry">
            <mxPoint x="620" y="630" as="sourcePoint" />
            <mxPoint x="670" y="580" as="targetPoint" />
          </mxGeometry>
        </mxCell>
        <mxCell id="iynb89mg0CrT0Ba88yT7-135" value="" style="endArrow=classic;html=1;rounded=0;" edge="1" parent="1" source="iynb89mg0CrT0Ba88yT7-11" target="iynb89mg0CrT0Ba88yT7-107">
          <mxGeometry width="50" height="50" relative="1" as="geometry">
            <mxPoint x="620" y="440" as="sourcePoint" />
            <mxPoint x="670" y="390" as="targetPoint" />
          </mxGeometry>
        </mxCell>
        <mxCell id="iynb89mg0CrT0Ba88yT7-136" value="" style="endArrow=classic;html=1;rounded=0;" edge="1" parent="1" source="iynb89mg0CrT0Ba88yT7-11" target="iynb89mg0CrT0Ba88yT7-42">
          <mxGeometry width="50" height="50" relative="1" as="geometry">
            <mxPoint x="630" y="450" as="sourcePoint" />
            <mxPoint x="680" y="400" as="targetPoint" />
          </mxGeometry>
        </mxCell>
      </root>
    </mxGraphModel>
  </diagram>
</mxfile>
